<!-- Generated using Bing Copilot -->
<svg version="1.0" xmlns="http://www.w3.org/2000/svg" width="1365.333" height="1365.333" viewBox="0 0 1024 1024"><path d="M457.5 144c-85.1 6.2-154.6 38-215 98.5-54.4 54.3-86.1 117.1-95.9 190-8.7 64.3 0 129.9 24.5 185.4 16.7 37.7 38.2 68.4 70.9 101.2 20.3 20.3 33.3 31.4 51.7 43.8l10.8 7.3-7-6.3c-3.8-3.5-8.6-7.9-10.5-9.6l-3.5-3.2 34.5-.1c33.8 0 34.7 0 39-2.2 2.5-1.3 5.5-3.8 6.8-5.7 2.2-3.4 2.2-3.8 2-30l-.3-26.6-9.2-.3-9.3-.3v-9.3c0-14.1 1-13.6-27.3-13.6-22.4 0-22.6 0-25.4 2.4-2.6 2.3-2.8 3-3.1 11.5l-.4 9.1h-10.2c-6.6 0-10.6.4-11.4 1.2-.9.9-1.2 7.7-1.2 24.3l-.1 23-6-6.5c-7.9-8.5-24.1-30-31.7-42-21.3-34-36-72.1-43.2-112-6.8-38.2-6.8-85.8 0-124 10.4-58.2 35.5-109.4 76.4-155.8 55.9-63.4 127.2-101.4 207.6-110.6 18-2.1 63.8-2.2 81-.1 55 6.4 102.3 24.2 146.1 54.7 13.5 9.4 36.9 28.6 36.9 30.3 0 .3-14.6.5-32.5.5H670l-1.2 2.5c-.9 1.9-.8 2.9.6 5l1.6 2.5h75.9l11.3 12.5c6.1 6.9 11.3 12.5 11.5 12.5.9 0-14.6-21.7-22.5-31.8-11.4-14.4-45-47.6-59.2-58.6-51.8-40.1-106.7-62.2-170.5-68.5-15-1.5-46.4-2.1-60-1.1zM337 679.5v6.5l-17.7-.2-17.8-.3-.3-4.9c-.5-8-1.4-7.6 18.3-7.6H337v6.5zM308.7 722c4.1 3.8 8 7 8.6 7 .6 0 4.3-3.2 8.3-7l7.2-7H356v10.7c0 6-.4 11.3-.8 11.9-2 3.1-5.4 3.4-37.7 3.4-32.3 0-35.7-.3-37.7-3.4-.4-.6-.8-5.9-.8-11.9V715h22.2l7.5 7z"/><path d="M592.2 267.3c-.6.7-1.2 5.3-1.4 10.2-.3 8.1-.5 9-2.3 9.3-1.1.2-3 1.3-4.2 2.5-2.3 2-2.3 2.5-2.3 25.2 0 22.5.1 23.3 2.3 26.6 3.8 5.7 7.5 6.9 21.2 6.9 14.4 0 17.8-1.3 21.3-8 2.1-4.2 2.2-5.6 2.2-24.7 0-23.3-.8-26.9-6-27.9l-3-.7v-8.8c0-8.9-1.1-11.9-4.5-11.9-1.8 0-4.5 2.8-4.5 4.6 0 1.1-1.5 1.4-6 1.4-5.1 0-6-.3-6-1.8 0-3.7-4.6-5.6-6.8-2.9zm18.8 18.2c0 2.4-.3 2.5-6 2.5s-6-.1-6-2.5.3-2.5 6-2.5 6 .1 6 2.5zM301.7 270.4c-1.7 2.5-8.4 4.8-11.7 3.9-2.8-.8-15 10.1-15 13.4 0 1.5-1.6 3.9-4.5 6.7-4.9 4.8-5.9 8.8-2.7 10.5 2.8 1.5 5.7.3 7.6-3.2 4.3-8.2 7.6-12.4 13.5-16.9 7.1-5.5 10.4-6 10.9-1.8.2 2.1-.4 2.9-3.1 4.2-7.4 3.6-13.8 11.2-16.6 20-1.4 4.1-3.1 4.7-7.5 2.7-4.1-1.9-5.7.2-5.5 7.5 0 3.4-.2 7.6-.6 9.3-.7 3-.3 3.7 3.9 7.8 2.6 2.5 4.9 5.7 5.2 7.4.7 3.5 11.4 13.4 14.1 13 3-.4 9.9 2 11.8 4.1 2.6 2.9 16.3 3 18.9.1 2-2.2 9.8-4.6 12.1-3.8 2.1.9 13.8-9.7 14.8-13.4.4-1.7 2.6-4.8 4.9-7.1 2.9-2.9 4.1-4.9 4-6.7-.3-4.8-.2-23.6 0-27.1.2-2.7-.2-3.7-2-4.6-2.7-1.4-7.2-7.5-7.2-9.9 0-.9-2.6-4.1-5.7-7.1-4.6-4.2-6.4-5.3-8.8-5.2-4.1.2-10.7-2.1-12.3-4.4-1.1-1.5-2.7-1.8-9.1-1.8-7.2 0-8 .2-9.4 2.4zm4.3 32.5c0 7.6-.4 8.1-6.8 8.1-5.6 0-6.8-1.2-5.3-4.8 1.7-4 8.4-10 11.4-10.2.4 0 .7 3.1.7 6.9zm16.7-4.3c3.2 2 7.3 7.8 7.3 10.2 0 2-.5 2.2-7 2.2h-7v-7.6c0-7.3.1-7.5 2.3-6.9 1.2.4 3.2 1.3 4.4 2.1zM306 327c0 3.8-.4 7-.9 7-1.8 0-7.7-4.7-9.8-7.9-3.7-5.4-3.2-6.1 4.2-6.1h6.5v7zm23.9-4.3c-1.3 3.8-3.9 6.7-8 9.2-5.4 3.3-5.9 2.9-5.9-4.9v-7h14.9l-1 2.7zM386 270c-1 1.9-.5 69.4.6 71.2.9 1.4 52.8 1 54.2-.4.9-.9 1.2-10.4 1.2-36.4 0-31.2-.2-35.3-1.6-35.8-.9-.3-13.2-.6-27.4-.6-24.8 0-26 .1-27 2zM364.2 270.2c-1.8 1.8-1.5 4.2.7 6.2 1.5 1.4 2.4 1.5 4 .6 3.6-1.9 2.2-8-1.9-8-.9 0-2.1.5-2.8 1.2zM461.2 271.5c-.6 1.4-1.6 2.5-2.2 2.5-1.9 0-1 2.5 2 5.4 2.7 2.7 3 2.7 3.7 1 .3-1 1.5-2.5 2.5-3.2 2.3-1.7 2.3-2.9-.1-3.7-1-.3-2.1-1.5-2.4-2.5-.7-2.7-2.2-2.5-3.5.5zM509.8 270.1c-1.6.9-1.8 3.4-1.8 28.2 0 28.7.2 29.7 4.5 29.7s4.5-1 4.5-29.7c0-25.9-.1-27.3-1.9-28.3-2.4-1.2-3.1-1.2-5.3.1zM630.4 270.5c-1.4 3.7 2.6 6.9 5.3 4.2 2.2-2.2.8-5.7-2.3-5.7-1.4 0-2.7.7-3 1.5zM651.6 271.2c-1 4.8-1.6 21-1 24.4.8 4.5 3.7 6.1 7 3.9 2.3-1.5 2.4-1.9 2.4-14.8 0-14.4-.4-15.7-5.2-15.7-2.1 0-2.9.6-3.2 2.2zM566.2 272.2c-2.5 2.5-.6 6.8 2.9 6.8 2.7 0 5-3.9 3.8-6.2-1.1-2-4.9-2.4-6.7-.6zM529.4 282.4c-1.7 1.3-1.9 3-2.2 20.3-.4 22.1 0 25 3.3 26.5 2 .9 2.9.8 4.5-.7s2-3.1 2-8.6V313l8.1 8.5c4.5 4.7 9 8.5 10 8.5 2.2 0 4.9-2.6 4.9-4.7 0-.8-3.5-5.1-7.7-9.4l-7.7-8 7.2-7.2c4-4 7.2-7.8 7.2-8.5 0-.6-1.1-1.9-2.4-2.7-3.1-2.1-4.4-1.4-12.1 6.4-3.3 3.4-6.3 6.1-6.7 6.1-.4 0-.8-4-.8-8.9 0-6.8-.4-9.3-1.6-10.5-1.9-2-3.5-2-6-.2zM479.8 291.2c-.9.7-4.2 7.1-7.3 14.3-8.8 20.3-9.1 21.1-7.6 22.9 2 2.4 5.8 2 7.7-.9 1.5-2.3 2.2-2.5 9.1-2.5 6.8 0 7.6.2 9.7 2.7 1.8 2 2.8 2.5 4.8 2 1.4-.4 2.8-1.3 3.1-2.1.6-1.6-13.7-35.6-15.5-36.8-1.7-1-2.1-1-4 .4zm4 20.1c1.7 4.6 1.6 4.7-2.2 4.7h-3.5l1.7-4c.9-2.2 1.9-4 2.2-4 .4 0 1.1 1.5 1.8 3.3zM720.2 292.2c-.9.9-1.2 7.2-1.2 22.3 0 22.3.2 23.5 4.6 23.5 4 0 5.4-2.5 5.4-9.8v-6.7l8.3 8.3c8.1 8.1 11 9.5 13.5 7 2.4-2.4 1.1-5.3-5.8-12.4-3.8-3.9-7-7.6-7-8.1s2.7-3.7 6-7c6.3-6.3 7-8.1 4.4-10.7-2.6-2.7-4.3-1.9-12 5.6l-7.4 7.1v-8.6c0-6.4-.4-8.9-1.6-10.1-1.8-1.9-5.5-2.1-7.2-.4zM674.5 305.2c-8.8 19.1-12.6 28.3-12.3 30.2.2 1.6 1.2 2.2 3.5 2.4 2.9.3 3.6-.2 5.4-3.2l2.1-3.6h7.1c7 .1 7.3.2 9.2 3.3 2.3 3.6 5.1 4.4 8 2.3 1.9-1.3 1.7-1.9-5.4-18.7-4.1-9.6-7.9-18-8.4-18.7-.5-.6-2-1.2-3.4-1.2-2 0-2.9 1.2-5.8 7.2zm9.4 17c.1.5-1.5.8-3.4.8-4 0-4.2-.5-1.8-5.6l1.8-3.6 1.7 3.9c.9 2.1 1.7 4.1 1.7 4.5zM710.2 303.9c-1.7 1-9.2 19.7-9.2 22.7 0 1.3.9 2.8 2.1 3.4 3.2 1.8 5.1-.7 9.9-12.6 4.1-10.1 4.2-10.6 2.5-12.4-2-2.2-3.3-2.4-5.3-1.1zM652.6 344.6c-2.4 2.3-2.9 5.9-1.6 9.9 2.1 6.5 2.1 6.5 55.2 6.5 41.2 0 47.6-.2 49.6-1.6 2.6-1.8 2.8-4.6.6-6.8-1.4-1.4-7.2-1.6-49-1.6H660v-2.8c0-4.9-4.2-6.9-7.4-3.6zM463.2 348.8l-12.2 4.5.6 11.6.6 11.6-5.8 3.3c-3.3 1.8-7.8 4.4-10.1 5.8l-4.1 2.5-5.3-6.5c-5.6-7-5.6-7-11.2-2.4l-2.8 2.3 5 6.6 4.9 6.6-10.5 10.6-10.4 10.6-11.2-3.9c-6.1-2.2-11.2-3.8-11.3-3.7-.1.1-3.4 6.4-7.4 13.9l-7.1 13.7 8.5 7.2c4.8 4 8.6 7.8 8.6 8.5 0 .8-.9 3.7-2 6.5-1.2 2.9-2.5 7.4-3.1 10-.6 2.7-1.4 5.1-1.9 5.4-.4.3-4-.1-7.9-.8l-7.1-1.4-1.1 4c-1.4 5.2-.8 6.3 3.8 7 2.1.4 5.4 1.1 7.3 1.7l3.5 1v39.1l-2.5.6c-1.4.3-4.7 1.1-7.5 1.7l-5 1.3.3 3.9c.2 2.1.7 4.3 1.2 4.8s3.2.4 6.6-.3c8.5-1.7 9.2-1.5 9.9 2.1.3 1.8 1.8 6.8 3.2 11.1 1.3 4.2 2.3 8.1 2.1 8.5-.2.5-3.8 3.9-8 7.6-4.3 3.7-7.8 7.5-7.8 8.4 0 1.1 11.8 23.8 13.5 26 .1.1 5.1-1.4 11.1-3.3l10.9-3.5 10.7 10.4 10.6 10.5-4.4 5.8c-2.4 3.2-4.4 6.3-4.4 6.9 0 .7 1.6 2.4 3.6 3.9l3.6 2.7 5.6-6.1 5.7-6.2 9.8 5.8 9.9 5.8-.6 11.5-.6 11.5 12 4.3c6.7 2.4 12.6 4.5 13.3 4.8.8.3 3.8-3.7 7.7-10l6.5-10.5 7 .5c3.9.3 7.6.7 8.3 1 .8.2 1.2 2.9 1.2 8.9v8.5h10v-8.4c0-4.7.3-8.7.8-8.9.4-.3 4.1-.6 8.2-.8l7.4-.4 6.1 9.7c3.3 5.4 6.7 9.8 7.5 9.8.8-.1 6.9-2 13.5-4.3l12-4.2-.4-11.7-.3-11.6 4.3-2.3c2.4-1.2 6.9-3.8 9.9-5.7l5.5-3.5 5.5 6.1 5.6 6.2 3.7-2.7c2-1.4 3.7-3.1 3.7-3.7 0-.6-2-3.7-4.5-7l-4.4-5.8 10.7-10.4 10.7-10.4 10.8 3.6c10.4 3.5 10.9 3.5 12.2 1.8 3.2-4.3 13.6-25.6 12.9-26.3-.5-.4-4.3-3.6-8.4-7.1-4.1-3.5-7.6-6.6-7.8-7-.1-.4.8-4.1 2.2-8.1 1.3-4.1 2.8-9.1 3.2-11.3l.7-3.8 4.1.6c2.2.3 5.7.9 7.7 1.2 4 .7 4 .6 5.4-6.2l.6-3-7.8-1.7-7.8-1.7v-39.1l3.5-.9c1.9-.5 5.3-1.3 7.5-1.8 4-.8 4-.9 3.8-5.2-.1-2.4-.6-4.7-1-5.1-.4-.4-3.7-.1-7.2.7-7 1.7-9.1 1.4-9.1-1.3 0-1-1.4-6-3.1-11.1-2.6-7.9-2.9-9.6-1.8-10.6.8-.7 4.7-4.1 8.7-7.5l7.2-6.3-7.1-13.7c-3.9-7.5-7.2-13.7-7.3-13.9-.2-.1-5.1 1.6-11 3.8l-10.8 4.1-10.8-10.9-10.7-10.8 4.9-6.5 4.8-6.4-3.2-2.8c-1.8-1.5-3.9-2.7-4.8-2.6-.8 0-3.7 2.7-6.3 6-4 5-5.1 5.8-6.5 4.8-.9-.6-5.3-3.2-9.7-5.8l-8-4.8.2-11.6c.1-6.5 0-11.7-.1-11.7s-6-2-13.1-4.5c-10.2-3.5-13.2-4.2-14.1-3.2-.6.6-3.7 5.4-6.8 10.4-4.9 7.8-6.1 9.2-7.9 8.8-1.2-.2-4.8-.7-7.9-1l-5.8-.6V346h-10v7.9c0 5.1-.4 8.2-1.2 8.8-.7.6-4.4 1.3-8.3 1.6l-7 .6-6.1-10.2c-3.4-5.6-6.8-10.3-7.5-10.3-.8-.1-6.9 1.9-13.7 4.4zm76 31.1c30.6 7 58.3 25.7 75.7 51.1 5.5 8 14 23.7 15.5 28.7l.7 2.3H393l1-2.4c2.6-6.9 8.6-18.3 13.9-26.4 19.3-29.4 51.1-49.4 87.6-55.2 9.4-1.4 33.6-.4 43.7 1.9zM396.2 360.2c-.7.7-1.2 2.1-1.2 3.3 0 3.6 2 4.5 10.1 4.5 6.9 0 8-.3 9.3-2.2 2-2.8 2-3.3 0-5.2-1.9-2-16.3-2.3-18.2-.4zM606.7 360.2c-2.1 1.1-2.2 5.2-.1 7.2 1.9 2 2.9 2 5.8.1 2-1.3 2.5-1.3 4.2 0 2.4 1.8 5.5 1.9 8 .1 1.6-1.2 2.3-1.2 4.7.2 2.8 1.6 2.9 1.6 4.8-.7 2.4-2.9 2.4-3.6.1-5.9-1.6-1.6-3.6-1.9-13.8-1.9-6.6-.1-12.8.3-13.7.9zM372.7 361.6c-.4.4-.7 2-.7 3.6 0 2.4-.4 2.8-2.9 2.8-1.6 0-3.4.6-4 1.4-1.6 1.9-.3 4.6 2.3 4.6 3 0 4.3 1.1 4.7 4 .3 1.9 1 2.5 2.9 2.5 2 0 2.6-.6 2.8-2.7.3-2.1 1-2.9 3-3.4 4.9-1 5.3-1.4 5-3.6-.2-1.9-1-2.4-4-2.6-3.3-.3-3.7-.6-4-3.5-.2-2.3-.9-3.3-2.3-3.5-1.2-.2-2.4 0-2.8.4zM647.7 374.1c-3.9 2.2-.4 7.9 3.5 5.8 1-.5 1.8-1.8 1.8-2.9 0-2.5-3-4.1-5.3-2.9zM270.2 375.6c-2.2 1.5-2.2 2-2.2 22.4 0 17.6.2 21.1 1.6 22.4 1.3 1.3 4.5 1.6 19 1.6H306v13h-17.8c-12.5 0-18.2.4-19 1.2-1.7 1.7-1.7 27.9 0 29.6.8.8 6.5 1.2 19 1.2H306v2.8c0 3.3 1.6 5.2 4.5 5.2s4.5-1.9 4.5-5.1c0-2.5.3-2.7 5.9-3.1 4.7-.3 6.6-1 9.9-3.6 3.9-3.1 4.3-3.2 13.6-3.2 9.2 0 9.7-.1 10.7-2.4.8-1.7.8-2.9 0-4.5-1.1-2-1.9-2.1-13.4-2.1-12 .1-12.2.1-15.7 3-3.6 3.1-9.4 4.1-10.2 1.7-.3-.6-.3-3.3 0-6l.4-4.7h15.2c13.5 0 15.5-.2 16.9-1.8 2-2.2 2.2-5.3.5-7-.8-.8-6-1.2-17-1.2H316v-4.9c0-2.7-.3-5.6-.6-6.5-.5-1.4 1.5-1.6 18.4-1.6 16 0 19.3-.3 20.6-1.6 1.4-1.3 1.6-4.8 1.6-22.4 0-20.4 0-20.9-2.2-22.4-1.9-1.4-7.6-1.6-41.8-1.6-34.2 0-39.9.2-41.8 1.6zM682.6 380.6c-3.1 3.1-1.3 7.4 3.1 7.4 2.1 0 4.3-2.5 4.3-4.9 0-1.4-2.9-4.1-4.5-4.1-.7 0-2.1.7-2.9 1.6zM749.8 380.1c-2.2 1.2-2.3 5.2-.3 6.9.8.7 2.5 1 3.9.6 3.3-.8 4.3-4.2 2-6.7-1.9-2.1-3.1-2.3-5.6-.8zM635.7 382.6c-1.3 1.3-.7 5.1.9 6.5 2.3 1.9 4.9-.1 4.9-3.7 0-2.4-.5-3-2.5-3.2-1.4-.2-2.9 0-3.3.4zM658.2 383.2c-2.8 2.8-.1 7.5 3.7 6.3 1.1-.3 2.3-1.5 2.6-2.6 1.2-3.8-3.5-6.5-6.3-3.7zM711.4 400l-14.9 16H679v-8.4c0-8.9-1.2-11.6-4.9-11.6-4.1 0-5.1 3-5.1 15.2 0 6.4.3 12.3.6 13.2.5 1.3 2.6 1.6 12.2 1.6h11.6l12.6 13.1 12.5 13.2 11.8-12.6 11.7-12.5 6.9-.4c10-.5 10.1-.8 10.1-15.2 0-6.6-.4-12.6-.8-13.2-.4-.7-4.4-1.3-9.4-1.5l-8.7-.4-6.3-6.3c-3.5-3.4-6.6-6.2-6.9-6.2-.4 0-7.3 7.2-15.5 16zM743 443.9c0 1-.9 2.1-2 2.4-2.5.7-2.6 2.4-.1 3.2 1 .3 2.1 1.5 2.4 2.5.3 1.1 1 2 1.7 2s1.4-.9 1.7-2c.3-1 1.4-2.2 2.4-2.5 2.5-.8 2.4-3.1-.1-3.8-1.1-.3-2-1.2-2-2.1 0-.9-.8-1.6-2-1.6-1.3 0-2 .7-2 1.9zM681 446.1c-.9 1.6-.8 2.6.5 4.5 1.3 2 2.4 2.4 6.5 2.4s5.2-.4 6.5-2.4c1.3-1.9 1.4-2.9.5-4.5-.9-1.8-2-2.1-7-2.1s-6.1.3-7 2.1zM693.3 478c-7.7 4-12.4 12-12.4 21.2 0 9.1.6 10.1 25 39.6 4.6 5.5 9.1 10.4 9.9 10.7 2.2.8 4-1.1 19.9-21 11.4-14.3 14.7-19 15.9-23.3 4.3-14.7-6.3-29.2-21.4-29.2-4.9 0-11.5 2.1-12.7 4-.4.6-1.8.1-3.6-1.2-4.4-3.3-14.9-3.7-20.6-.8zM334.5 480.3c-2.7 2-1.6 6.1 1.7 6.5 2.8.3 5.5-2.8 4.3-4.8-1.3-2.1-4.2-2.9-6-1.7zM284.6 489c-18.3 7.2-22.5 31.5-7.5 44.3 6 5.2 11.4 6.7 23.8 6.7 5.8 0 12.3-.5 14.4-1.1l3.7-1 9 8c7.7 6.9 9.5 8.1 12.5 8.1 4.7 0 8.5-3.7 8.5-8.1 0-2.6-1.4-4.6-8.5-11.8l-8.4-8.6 1.4-4c4.3-12.2-1.4-25.3-13.7-31.4-5.8-3-6.7-3.1-18.2-3.1-9.5.1-13.2.5-17 2zm28.2 9.2c.7.7 1.2 2.4 1.2 3.8v2.7l-16.6.7c-9.2.3-16.9.4-17.2.2-.9-1 6-6.6 9.2-7.5 4.8-1.4 22-1.3 23.4.1z"/><path d="M353.2 503.2c-1.9 1.9-1.4 5.6.8 6.3 2.4.8 5-1 5-3.4 0-1.9-1.9-4.1-3.5-4.1-.6 0-1.6.5-2.3 1.2zM682.1 539.8c-1.4 2.7.8 5.5 4 5 1.9-.2 2.4-.9 2.4-3.3 0-2.5-.4-3.1-2.7-3.3-1.8-.2-3 .3-3.7 1.6zM746.8 539.2c-2.6 2.2-2.9 4.7-.8 6.8 1.5 1.5 2.5 1.7 4.2 1.1 3-1.1 3.7-6 1.2-7.8-2.2-1.6-2.6-1.6-4.6-.1zM267.8 547.1c-3.4 1.9-1.2 8.9 2.8 8.9 1.8 0 5.4-3.6 5.4-5.3 0-1.8-3.2-4.7-5.1-4.7-.8 0-2.2.5-3.1 1.1zM671.5 563.5l-2.5 2.4v44.6l-3 1.7c-4.8 2.7-7.2 7.5-6.7 13.1.5 5.4 2.7 9.1 7.7 12.4 3.3 2.3 3.5 2.3 43.4 2.3 39.2 0 40.2-.1 43.6-2.1 6.4-3.9 9.6-10.8 8-16.9-1.2-4.5-4.3-8.6-7-9.5-1.9-.6-2-1.6-2-23.1v-22.5l-2.5-2.4-2.4-2.5h-74.2l-2.4 2.5zm43.1 8.5H743l-.2 18.7-.3 18.8-31.7.3-31.8.2v-18.8c0-10.4.3-19.2.7-19.6.5-.4 2.1-.5 3.7-.2s15.6.6 31.2.6zm36.2 49.2c1.7 1.4 1.5 4.8-.5 7-1.5 1.7-4.1 1.8-39.5 1.8-36.5 0-37.9-.1-39.8-2-2.4-2.4-2.5-4.3-.6-6.3 1.2-1.2 7.9-1.4 40.3-1.4 24.5-.1 39.3.3 40.1.9z"/><path d="M696.6 582.5c-1.1 1.1-1.6 3.4-1.6 7.5 0 9.5-.8 9 15.9 9 10.1 0 15.1-.4 15.9-1.2 1.4-1.4 1.6-12.6.2-14.8-.7-1.2-3.8-1.6-14.8-1.8-11.9-.3-14.2-.1-15.6 1.3zM281.1 563.6c-2.6 1.9-5.1 7.1-5.1 10.9 0 2.2-.4 2.5-3.4 2.5-1.8 0-3.8.6-4.4 1.3-1.2 1.4-2 47.6-.8 49.5.4.7 1.8 1.2 3.2 1.2 2.1 0 2.4.5 2.4 3.4 0 1.8-.7 3.9-1.5 4.6-2.9 2.4-.8 8.4 3.4 9.8 6.2 2.1 11.5-3.1 9.3-9.2-.7-1.8-1.2-4.4-1.2-5.9 0-2.6.2-2.7 5.3-2.7h5.2l7.4 8.5c4 4.6 8.2 8.7 9.3 9.1 2.3.7 4.5-1.2 12.6-10.8l5.6-6.8H339v3.4c0 1.9-.4 3.8-1 4.1-1.7 1-1.1 7.1.8 8.8 2.5 2.3 7.8 2.1 10.2-.3 2.1-2.1 2.7-7.4 1-8.5-.5-.3-1-2.2-1-4.1 0-2.9.3-3.4 2.3-3.4 1.3 0 2.8-.5 3.5-1.2 1.7-1.7 1.7-47.9 0-49.6-.7-.7-2.9-1.2-5-1.2-3.6 0-3.8-.2-3.8-3.3 0-6.8-6.5-13-11.8-11.1-3.7 1.3-4.1 5.2-.7 8.4 1.4 1.3 2.5 3.2 2.5 4.2 0 1.6-1 1.8-9.9 1.8h-9.8l-.7-4.1c-.8-5-2.8-8.2-6.2-9.7-1.4-.7-7.5-1.2-14.2-1.2-9.3 0-12.3.3-14.1 1.6zm23.9 10.3c.5 1.1 1 2.2 1 2.5 0 .3-4.3.6-9.5.6-9.5 0-9.5 0-9.5-2.5s.1-2.5 8.5-2.5c7.3 0 8.6.3 9.5 1.9zM258.6 593.2c-.3 2.9-.8 11.2-1.1 18.4-.4 11.2-.3 13.4 1.1 14.5 2.1 1.7 3.6-.6 2.9-4.5-.3-1.6-.5-9.8-.5-18.2 0-8.8-.4-15.4-.9-15.4s-1.2 2.4-1.5 5.2zM622.8 617.1c-3.6 2-1.5 9.7 2.7 10.3 1.6.2 2 1.1 2 4.7v4.4l4.8.3c5.5.4 7.7-.9 7.7-4.4 0-1.6-.9-2.8-2.9-3.9-3.3-1.6-4.6-4.4-3.6-7.5.4-1.2.1-2.7-.5-3.5-1.4-1.7-7.6-1.9-10.2-.4zM388.1 620.9c-1.4 2.6.8 5.4 4 4.9 1.6-.2 2.5-1 2.7-2.7.6-4-4.8-5.8-6.7-2.2zM370 647.8c-2.8 1.3-3.6 2.4-3.8 4.9-.3 2.5.2 3.5 2.2 4.8 2.4 1.6 2.8 1.6 6.3-.5l3.7-2.2 3.8 2.2c3.7 2.1 4 2.1 6.4.5 3.9-2.5 3-7.4-1.6-9.7-4.4-2.3-12.4-2.2-17 0zM406.6 650.1c-4.9 4.3-6 9.8-5.4 29.4.3 14 .6 15.9 2.3 17.1 2.6 1.9 4.1 1.8 6.5-.6 1.9-1.9 2-3.3 2-20 0-15.2.2-18.2 1.5-18.6.8-.4 2.2-.1 3 .6 1.2 1 1.5 4.5 1.5 18.7v17.5l2.9 2.9c4 4 9.3 4 14.7.1 2.1-1.6 4.5-3.6 5.3-4.5 1.9-2.4 12.9-2.4 13.8-.1 1.2 3.2-1 6.8-4.6 7.5-1.9.4-5 2.3-7 4.3-3.1 3.1-3.6 4.4-4.1 9.4l-.5 5.7-6.2.5c-3.4.3-6.8 1.1-7.5 1.8-1.6 1.6-2.4 29.9-1.1 35.2.7 2.8 1.5 3.6 3.7 3.8 5.1.6 5.6-.7 5.6-15.8v-13.8l4.3-.7c8.1-1.3 12.7-6.6 12.7-14.5 0-4.4.1-4.5 5.2-7 6.5-3.1 8.9-6.4 9.6-12.9l.5-5.1h3.7c5 0 7.8-2.9 6.4-6.8l-.9-2.7-17.8-.3-17.7-.2-4.9 4.5c-2.6 2.5-5.1 4.5-5.5 4.5-.3 0-.6-7.2-.6-16 0-14.1-.2-16.6-2-20-3.8-7.5-13.2-9.4-19.4-3.9zM602.4 648.9c-5.2 3.2-6.4 7.9-6.4 25.7v15.6l-5.2-4.6-5.3-4.6-17.4.2c-16.1.3-17.5.4-18.7 2.3-1.1 1.6-1.1 2.5-.1 4.5s2.2 2.6 5.7 3l4.5.5.5 5.1c.7 6.7 3.2 10.2 9.1 12.7l4.8 2.1.7 6c.9 7.9 4.6 11.9 11.7 13l4.7.7v13c0 7.2.5 13.9 1 15 .7 1.2 2.1 1.9 4 1.9s3.3-.7 4-1.9c.6-1.1 1-9.1 1-18.9 0-19.7.1-19.4-9.4-20.2l-6.1-.5-.5-5.5c-.7-7-3.8-11.4-9.4-13.3-4.4-1.5-7.4-5.3-6.3-8 .5-1.3 2-1.7 6.5-1.7 5.2 0 6.1.3 8.8 3.1 5.3 5.6 8.8 7.1 13.2 6 2.1-.6 4.8-2.1 6-3.4 2-2.1 2.2-3.4 2.4-20.1.3-16 .5-18 2.1-19 1.5-.9 2.1-.7 3.3.8 1.1 1.6 1.4 5.8 1.4 19.8 0 17.8 0 17.8 2.4 18.9 3.4 1.6 6.4-.3 7-4.4.3-1.7.5-10.6.3-19.7-.2-14.1-.5-16.9-2.1-19.6-3.8-6.3-12-8.3-18.2-4.5zM645 650c-2.2 4.1 1.3 8.5 5.8 7.3 2.6-.6 4-4.8 2.5-7.2-1.6-2.6-6.9-2.6-8.3-.1zM699.4 653.7c-.6.5-2.2 2.6-3.6 4.8-1.6 2.6-3.8 4.5-6.1 5.3-3.4 1.2-4 1.1-8-1.2l-4.3-2.6-7.8 7.9-7.8 7.8 2.1 4.1c1.2 2.3 2.1 5 2.1 6 0 2.4-3.7 7.2-5.5 7.2-.8 0-2.6.5-4 1.2-2.5 1.1-2.5 1.3-2.5 12v10.9l4.8 2.1c2.6 1.2 5.2 2.8 5.9 3.7 1.6 2.1 1.6 6-.2 9.1-2.6 4.6-1.8 6.7 5.3 14.1l6.7 7 4.6-2.3 4.5-2.3 4.6 1.9c3.4 1.4 4.8 2.6 5.3 4.5 1.3 5.3 3 6.1 13.1 6.1h9.2l2.2-4.4c1.5-3.2 3.3-5 6.2-6.4 4-2 4-2 7.2-.1 1.7 1 3.8 1.9 4.6 1.9.9 0 4.8-3.3 8.8-7.3l7.3-7.4-2.1-5.3c-2.7-6.8-1.7-9.3 4.5-12.1 2.4-1.1 4.7-2.4 5-2.9.3-.5.7-5.5.8-11.1.2-11.1.5-10.6-6.5-13.3-5.6-2.2-6.6-5.3-3.9-11.6 2.6-6.1 2.5-6.4-6.3-14.8l-6.6-6.4-4.4 2.6c-4.3 2.5-4.5 2.5-8.8.9-3.3-1.2-4.7-2.5-6.3-5.7l-2-4.1-8.5-.3c-4.7-.1-9 .1-9.6.5zm15.6 40.1c7.6 3.8 10.3 13.4 5.9 21.2-5.9 10.5-21.7 9.5-26.5-1.7-5.7-13.3 7.7-26 20.6-19.5zM271.2 668.9c-1.8 1.1-1.1 5.1 1.1 6.5 2.5 1.6 5.2-.4 5.2-4 0-2.4-.5-2.9-2.5-3.2-1.4-.1-3.1.2-3.8.7zM386.9 675.1c-2 2-2.1 2.9-1.7 16.8.4 15.5.6 16.3 6.3 23l3.5 4.3v19.7c0 20.7.3 22.1 4.5 22.1 4.3 0 4.5-1.3 4.5-25.2V713l-4-4.4-4-4.3v-14c0-12.3-.2-14.2-1.8-15.6-2.5-2.3-4.8-2.1-7.3.4zM629.6 675.2c-1.3 1.8-1.6 5.2-1.6 15.8 0 13.4 0 13.7-2.6 16.1-5.1 4.8-5.4 6.2-5.4 28.9 0 12.7.4 21.9 1 23.1.7 1.2 2.1 1.9 4 1.9s3.3-.7 4-1.9c.6-1.2 1-10.1 1-21.9v-19.9l2.6-2.4c5.4-5.1 6.4-8.6 6.4-23.6 0-15.2-.9-18.3-5.5-18.3-1.3 0-3.1 1-3.9 2.2zM499.6 679c-4.1 1.3-9.3 6.6-11.2 11.7-1.7 4.3-1.7 4.3-6.6 4.3-4.2 0-5 .3-6 2.6-1.8 3.9 0 5.8 5.6 6.2 4.1.3 4.6.6 4.6 2.8 0 2.4-.1 2.4-9.3 2.4-10.1 0-11.7.7-11.7 5s1.6 5 11.7 5c8.4 0 9.3.2 9.3 1.9 0 2.2-4 3.1-13.7 3.1-5.3 0-6.4.3-7.3 2.1-.9 1.6-.8 2.6.5 4.5 1.5 2.3 2.1 2.4 11 2.4 9.5 0 9.5 0 9.5 2.5s0 2.5-9.3 2.5c-10.1 0-11.7.7-11.7 5.2 0 3.9 2.5 4.8 13 4.8 8.5 0 9.1.1 9.9 2.3 1.5 3.8 6.3 8.9 9.8 10.3 3.9 1.7 23.8 1.9 28 .3 3.6-1.3 8.8-6.4 10.4-10 1.1-2.9 1.2-2.9 9.8-2.9 9.6 0 13.4-1.4 13.9-4.8.6-4.4-1.3-5.2-11.9-5.2-9.9 0-9.9 0-9.9-2.5s0-2.5 9.4-2.5c10 0 12.6-1 12.6-5s-2.6-5-12.6-5c-8.7 0-9.4-.1-9.4-2s.7-2 9.3-2c7.8 0 9.7-.3 11-1.8 2.2-2.4 2.1-4.5-.1-6.5-1.5-1.3-3.9-1.7-11-1.7-9.1 0-9.2 0-9.2-2.5 0-2.3.4-2.5 4.3-2.5 4.7 0 6.7-1.3 6.7-4.5 0-3.3-2-4.5-7.2-4.5-4 0-4.8-.3-4.8-1.8 0-1-1.4-3.9-3-6.6-4.4-6.8-8.8-8.6-21.5-8.5-5.5 0-11.3.5-12.9.9zM646.1 746.1c-2 2.6-2.1 3.5-1.2 5.6.6 1.3.9 2.9.5 3.4-.3.6.2 1.9 1.2 3 1.6 1.8 1.8 1.8 3.6.3 1-1 1.8-2.4 1.8-3.2 0-.9.7-2.3 1.5-3.2 1.4-1.6 1.4-2.1-.7-5.3-1.3-2-2.8-3.6-3.4-3.7-.5 0-2.1 1.4-3.3 3.1zM376.1 749.4c-1.6 2-.5 5.3 2 6.1 2.7.9 5.1-1.3 4.7-4.4-.2-2-.9-2.7-2.9-2.9-1.4-.2-3.1.4-3.8 1.2zM448.5 751.3c-2.1 1.6-1.7 5.6.7 7.1 1.4.8 2.2.6 3.9-1.1 2.4-2.4 2.1-4.6-.9-6.2-1.4-.7-2.4-.7-3.7.2zM570.6 751.6c-.9.8-1.6 2.2-1.6 2.9 0 1.3 2.6 4.5 3.6 4.5 2 0 4.4-2.5 4.4-4.5 0-1.4-.8-2.9-1.9-3.5-2.5-1.3-2.7-1.3-4.5.6z"/></svg>